name D:\school\WTK\thesis\model\3dpredictsim\Results\Final\Fal_s1_bCst_ig1.mot
datacolumns 126
datarows 4
range 0.55208384 0.58520887
endheader
time	pelvis_tilt	pelvis_list	pelvis_rotation	pelvis_tx	pelvis_ty	pelvis_tz	hip_flexion_l	hip_adduction_l	hip_rotation_l	hip_flexion_r	hip_adduction_r	hip_rotation_r	knee_angle_l	knee_angle_r	ankle_angle_l	ankle_angle_r	subtalar_angle_l	subtalar_angle_r	mtp_angle_l	mtp_angle_r	lumbar_extension	lumbar_bending	lumbar_rotation	arm_flex_l	arm_add_l	arm_rot_l	arm_flex_r	arm_add_r	arm_rot_r	elbow_flex_l	elbow_flex_r	pro_sup_l	pro_sup_r	glut_med1_l/activation	glut_med2_l/activation	glut_med3_l/activation	glut_min1_l/activation	glut_min2_l/activation	glut_min3_l/activation	semimem_l/activation	semiten_l/activation	bifemlh_l/activation	bifemsh_l/activation	sar_l/activation	add_long_l/activation	add_brev_l/activation	add_mag1_l/activation	add_mag2_l/activation	add_mag3_l/activation	tfl_l/activation	pect_l/activation	grac_l/activation	glut_max1_l/activation	glut_max2_l/activation	glut_max3_l/activation	iliacus_l/activation	psoas_l/activation	quad_fem_l/activation	gem_l/activation	peri_l/activation	rect_fem_l/activation	vas_med_l/activation	vas_int_l/activation	vas_lat_l/activation	med_gas_l/activation	lat_gas_l/activation	soleus_l/activation	tib_post_l/activation	flex_dig_l/activation	flex_hal_l/activation	tib_ant_l/activation	per_brev_l/activation	per_long_l/activation	per_tert_l/activation	ext_dig_l/activation	ext_hal_l/activation	ercspn_l/activation	intobl_l/activation	extobl_l/activation	glut_med1_r/activation	glut_med2_r/activation	glut_med3_r/activation	glut_min1_r/activation	glut_min2_r/activation	glut_min3_r/activation	semimem_r/activation	semiten_r/activation	bifemlh_r/activation	bifemsh_r/activation	sar_r/activation	add_long_r/activation	add_brev_r/activation	add_mag1_r/activation	add_mag2_r/activation	add_mag3_r/activation	tfl_r/activation	pect_r/activation	grac_r/activation	glut_max1_r/activation	glut_max2_r/activation	glut_max3_r/activation	iliacus_r/activation	psoas_r/activation	quad_fem_r/activation	gem_r/activation	peri_r/activation	rect_fem_r/activation	vas_med_r/activation	vas_int_r/activation	vas_lat_r/activation	med_gas_r/activation	lat_gas_r/activation	soleus_r/activation	tib_post_r/activation	flex_dig_r/activation	flex_hal_r/activation	tib_ant_r/activation	per_brev_r/activation	per_long_r/activation	per_tert_r/activation	ext_dig_r/activation	ext_hal_r/activation	ercspn_r/activation	intobl_r/activation	extobl_r/activation	
          0.55208384	         -2.93017651	          1.95142001	         -4.59726994	          0.69010479	          0.92008446	          0.00208350	         29.72946721	          3.27692793	         -1.91655931	        -17.70002424	         -0.81381360	          6.24434786	        -12.51355049	         -4.48177484	          6.93032702	          1.10473719	         -5.43794110	          7.17400641	         -0.13130648	         20.68321081	         -2.13531865	         -0.15050169	          1.82256067	         -5.21095425	        -13.48821016	          6.77677503	          6.31428987	        -13.45144302	         16.69889546	         15.85913420	         32.09543931	         86.51662706	         86.51662706	          0.13408407	          0.05000004	          0.05920138	          0.05000002	          0.05000004	          0.05000017	          0.05920175	          0.05939330	          0.24597851	          0.05000007	          0.05000040	          0.09819901	          0.16643503	          0.21743167	          0.15662162	          0.12104754	          0.05920123	          0.05001444	          0.08867945	          0.05927545	          0.07009617	          0.11878272	          0.05000002	          0.05000003	          0.23967717	          0.05000054	          0.05000022	          0.05000007	          0.08425831	          0.08439511	          0.07268348	          0.05920101	          0.05000069	          0.05920137	          0.05000002	          0.05000012	          0.05000014	          0.51197476	          0.31362935	          0.18780274	          0.21036994	          0.48630044	          0.23880537	          0.07016572	          0.12229734	          0.12529712	          0.31308352	          0.11635115	          0.08299571	          0.34082835	          0.21422608	          0.11662342	          0.05000032	          0.05000009	          0.05000006	          0.06537549	          0.11635304	          0.05000007	          0.05000007	          0.05000009	          0.05000026	          0.05000016	          0.33538698	          0.05000031	          0.05000039	          0.05000931	          0.05000189	          0.05000060	          0.43424487	          0.66898521	          0.05000053	          0.05000105	          0.07009606	          0.23549171	          0.05000019	          0.05000013	          0.05000013	          0.32271816	          0.44007860	          0.30229299	          0.29264547	          0.31461645	          0.39043887	          0.05000001	          0.05000117	          0.13278517	          0.05000006	          0.05000001	          0.05000006	          0.05000000	          0.05000000	          0.05000000	
          0.56312551	         -2.92787244	          2.05780360	         -4.91642508	          0.70641214	          0.91898564	          0.00189287	         29.18899379	          3.59546886	         -1.70721039	        -17.66692025	         -1.11974789	          6.02711838	        -12.32776105	         -6.22643518	          6.40777896	          0.47269665	         -5.81006944	          8.01614277	         -0.10976911	         21.71658075	         -1.95912015	         -0.36611509	          1.88463746	         -6.05676749	        -13.48867007	          6.56127013	          6.12903800	        -13.45779551	         17.01879574	         15.48147820	         33.27938712	         86.51662706	         86.51662706	          0.11324403	          0.05920138	          0.05000002	          0.05920720	          0.05920149	          0.05000072	          0.05000032	          0.05016214	          0.22028038	          0.05723752	          0.05000028	          0.10276155	          0.14056703	          0.18630510	          0.18067821	          0.12494865	          0.05000005	          0.05000089	          0.07489698	          0.05006262	          0.05920147	          0.13268247	          0.05001347	          0.05000152	          0.46288861	          0.13811205	          0.05000020	          0.07009614	          0.16740824	          0.16758620	          0.14590160	          0.05000000	          0.05000000	          0.05000000	          0.05000002	          0.05000011	          0.05000007	          0.56020083	          0.26950658	          0.20041506	          0.37907672	          0.51879279	          0.21403644	          0.05926020	          0.10328924	          0.10582277	          0.26442247	          0.09826724	          0.07009609	          0.28785504	          0.18092994	          0.09849720	          0.05000036	          0.05000008	          0.05000007	          0.05521451	          0.09826890	          0.08720303	          0.05000048	          0.05000043	          0.05000063	          0.05000038	          0.28325940	          0.06507840	          0.05000053	          0.05000053	          0.05000037	          0.05000032	          0.36675224	          0.60825264	          0.05000006	          0.05000114	          0.05920146	          0.20102924	          0.05000053	          0.14324391	          0.11438665	          0.27255958	          0.37167925	          0.27398738	          0.28706975	          0.28006362	          0.37132462	          0.05000000	          0.05189472	          0.13660705	          0.05000005	          0.05000001	          0.05000004	          0.05000000	          0.07009601	          0.05000000	
          0.57416719	         -2.92205063	          2.16061130	         -5.21589588	          0.72302110	          0.91794681	          0.00170635	         28.55844938	          3.86740836	         -1.44716141	        -17.55859212	         -1.42320123	          5.80038829	        -12.76057267	         -8.10554270	          5.77000913	         -0.31778548	         -6.19461344	          8.83328014	         -0.13538146	         22.63235039	         -1.76259290	         -0.58524651	          1.93789863	         -6.93927077	        -13.48944477	          6.37016053	          5.87044517	        -13.46515823	         17.28156647	         15.17263012	         34.43665788	         86.51662706	         86.51662706	          0.25622068	          0.05000003	          0.26880789	          0.05000492	          0.05000010	          0.05000007	          0.06707550	          0.05000005	          0.19176613	          0.05000001	          0.05000016	          0.08678996	          0.23530089	          0.18152957	          0.15259651	          0.13993774	          0.05000022	          0.05925002	          0.06326348	          0.05000006	          0.05000015	          0.12664411	          0.05000109	          0.05000018	          0.39094401	          0.11664597	          0.14678365	          0.05920143	          0.14138882	          0.14153911	          0.12322484	          0.06295857	          0.06918036	          0.05920143	          0.05920140	          0.05920135	          0.05920136	          0.47313144	          0.29443152	          0.16926551	          0.32015863	          0.52160532	          0.18076977	          0.05004967	          0.10545829	          0.08937524	          0.28055761	          0.08299403	          0.05920139	          0.24311514	          0.15280886	          0.08318825	          0.05000051	          0.05000024	          0.05000024	          0.05000006	          0.08299550	          0.13184198	          0.06871502	          0.05920166	          0.05919666	          0.05920126	          0.23923377	          0.08297609	          0.05000257	          0.05000325	          0.05000236	          0.05000616	          0.30974969	          0.57954083	          0.05085766	          0.05000044	          0.05000008	          0.16978421	          0.16953942	          0.12106884	          0.09661869	          0.23019692	          0.31391088	          0.23140280	          0.24828546	          0.23653477	          0.31361151	          0.05000000	          0.05000018	          0.16133289	          0.05000004	          0.05000001	          0.05000005	          0.05243457	          0.05920136	          0.05000988	
          0.58520887	         -2.91435501	          2.26461124	         -5.48805571	          0.73978637	          0.91697455	          0.00150908	         27.82449292	          4.10468621	         -1.17875609	        -17.35889902	         -1.72410626	          5.57008930	        -13.27553883	        -10.12821298	          5.27023161	         -1.25843969	         -6.57308137	          9.60195838	         -0.14364194	         23.37033231	         -1.56000432	         -0.81224560	          1.98244704	         -7.82145032	        -13.49196480	          6.22135484	          5.55882174	        -13.47451494	         17.49383840	         14.90951541	         35.55649677	         86.51662706	         86.51662706	          0.29726904	          0.25872835	          0.32938949	          0.16683021	          0.19053512	          0.17060935	          0.05665029	          0.08402216	          0.16196082	          0.08299724	          0.05920061	          0.07330062	          0.19872918	          0.15331532	          0.12887922	          0.15109129	          0.05000012	          0.05004115	          0.08579382	          0.20046938	          0.15383117	          0.12529495	          0.05000002	          0.05000003	          0.33018144	          0.09851629	          0.12396983	          0.05000004	          0.11941343	          0.11954037	          0.10407259	          0.05317322	          0.05842800	          0.05000003	          0.05000001	          0.05000004	          0.05000006	          0.59899340	          0.36058672	          0.19471192	          0.51007808	          0.56537568	          0.28395960	          0.07423407	          0.10185429	          0.07548406	          0.29788044	          0.07009466	          0.05000002	          0.33216913	          0.12905851	          0.07025870	          0.05000050	          0.05000004	          0.05000003	          0.05000007	          0.07009603	          0.13761200	          0.05803505	          0.05000036	          0.05000030	          0.05000017	          0.22995219	          0.07008772	          0.05000015	          0.05000035	          0.05000022	          0.05000015	          0.26160678	          0.54443761	          0.05000002	          0.05000015	          0.05000012	          0.14736135	          0.15267132	          0.10227898	          0.14202267	          0.19441849	          0.26512118	          0.19543694	          0.20969567	          0.19977133	          0.26486839	          0.05000000	          0.08246530	          0.15158677	          0.05000003	          0.05000000	          0.05000003	          0.06437090	          0.05000000	          0.05000000	
